<svg width="82" height="83" viewBox="0 0 82 83" fill="none" xmlns="http://www.w3.org/2000/svg">
<path d="M31.0793 58.2572H31.4793V57.8572V56.4822C31.4793 54.4308 33.1704 52.7572 35.2698 52.7572L38.062 52.7572C38.0622 52.7572 38.0624 52.7572 38.0626 52.7572C38.9991 52.7606 39.8999 53.1068 40.5896 53.7271L40.8571 53.9676L41.1245 53.7271C41.8143 53.1068 42.7151 52.7606 43.6516 52.7572C43.6518 52.7572 43.6519 52.7572 43.6521 52.7572L46.4444 52.7572C48.5438 52.7572 50.2349 54.4308 50.2349 56.4822V57.8572V58.2572H50.6349H53.0285V60.2072H50.6349H50.2349V60.6072V61.9822V62.3822H50.6349H53.0285V64.3322H50.6349H50.2349V64.7322V68.4572H48.2412V66.1072V65.7072H47.8412H33.8729H33.4729V66.1072V68.4572H31.4793V64.7322V64.3322H31.0793H28.6856V62.3822H31.0793H31.4793V61.9822V60.6072V60.2072H31.0793H28.6856V58.2572H31.0793ZM47.8412 63.7572H48.2412V63.3572V56.4822C48.2412 55.496 47.4307 54.7072 46.4444 54.7072H43.6507C42.6644 54.7072 41.8539 55.496 41.8539 56.4822V63.3572V63.7572H42.2539H47.8412ZM39.4602 63.7572H39.8602V63.3572V56.4822C39.8602 55.496 39.0498 54.7072 38.0634 54.7072H35.2698C34.2834 54.7072 33.4729 55.496 33.4729 56.4822V63.3572V63.7572H33.8729H39.4602Z" fill="white" stroke="white" stroke-width="0.8"/>
<path d="M19.0667 37.6714H19.4667V37.2714L19.4667 1.86192C19.4667 1.33072 19.8974 0.900009 20.4286 0.900009L61.2857 0.900009C61.8169 0.900009 62.2476 1.33071 62.2476 1.86192L62.2476 37.2714V37.6714H62.6476L81.3143 37.6714V45.0429L56.6362 45.0429H55.6976L56.3476 45.7199C60.1429 49.6729 62.2576 54.9431 62.2476 60.4231V60.4238C62.2476 72.2374 52.6707 81.8143 40.8571 81.8143C29.0436 81.8143 19.4667 72.2374 19.4667 60.4238L19.4667 60.4231C19.4566 54.9431 21.5714 49.6729 25.3667 45.7199L26.0167 45.0429H25.0781H0.4L0.4 37.6714H19.0667ZM31.6723 45.7819L32.8523 45.0429L59.9238 60.4236L60.3238 60.4251C60.3238 60.4247 60.3238 60.4244 60.3238 60.424C60.3452 54.4525 57.6056 48.8063 52.9017 45.1276L52.7932 45.0427H52.6553H50.2543H48.862L50.042 45.7817C52.2602 47.1709 54.1342 49.045 55.5233 51.263C60.5959 59.3629 58.1418 70.0413 50.042 75.1139L50.2543 75.4529L50.042 75.1139C41.9422 80.1867 31.2636 77.7326 26.191 69.6328C21.1184 61.5329 23.5725 50.8545 31.6723 45.7819ZM40.8571 45.0429H40.8567C32.3665 45.0528 25.4862 51.9331 25.4762 60.4233V60.4238C25.4762 68.9185 32.3625 75.8048 40.8571 75.8048C49.3518 75.8048 56.2381 68.9185 56.2381 60.4238C56.2381 51.9292 49.3518 45.0429 40.8571 45.0429ZM79.3905 39.9952V39.5952H78.9905L2.72381 39.5952H2.32381V39.9952L2.32381 42.7191V43.1191H2.72381L78.9905 43.1191H79.3905V42.7191V39.9952ZM60.3238 3.22382V2.82381H59.9238L35.4095 2.82381H35.0095V3.22382L35.0095 37.2714V37.6714H35.4095H59.9238H60.3238V37.2714L60.3238 3.22382ZM33.0857 3.22382V2.82381H32.6857H27.2381H26.8381V3.22382L26.8381 37.2714V37.6714H27.2381H32.6857H33.0857V37.2714L33.0857 3.22382ZM24.9143 3.22382V2.82381H24.5143H21.7905H21.3905V3.22382L21.3905 37.2714V37.6714H21.7905H24.5143H24.9143V37.2714L24.9143 3.22382Z" fill="white" stroke="white" stroke-width="0.8"/>
<path d="M55.8243 17.8364L55.3633 18.1637L55.8253 18.4895C56.3616 18.8676 56.8349 19.3202 57.2298 19.8315C59.4063 22.65 58.7858 26.6219 55.8253 28.7097C52.8543 30.8048 48.6695 30.197 46.4843 27.3675C44.3078 24.5492 44.9283 20.5774 47.8888 18.4894L48.3532 18.1619L47.8882 17.8353C46.1905 16.6425 45.1919 14.7565 45.1861 12.7558C45.1832 10.7527 46.1737 8.86006 47.8672 7.65763L47.6357 7.33148L47.8672 7.65763C50.826 5.5568 55.006 6.15092 57.1968 8.96915L57.1969 8.96916C59.3792 11.7762 58.7727 15.7432 55.8243 17.8364ZM51.8571 8.30236C49.3103 8.30236 47.2145 10.2797 47.2145 12.7567C47.2145 15.2338 49.3103 17.2111 51.8571 17.2111C54.4038 17.2111 56.4997 15.2338 56.4997 12.7567C56.4997 10.2797 54.4038 8.30236 51.8571 8.30236ZM51.8571 19.114C49.3103 19.114 47.2145 21.0914 47.2145 23.5684C47.2145 26.0454 49.3103 28.0228 51.8571 28.0228C54.4038 28.0228 56.4997 26.0454 56.4997 23.5684C56.4997 21.0914 54.4038 19.114 51.8571 19.114Z" fill="white" stroke="white" stroke-width="0.8"/>
</svg>
