<?xml version="1.0" encoding="utf-8"?><svg xmlns="http://www.w3.org/2000/svg" xmlns:xlink="http://www.w3.org/1999/xlink"><symbol viewBox="0 0 31 12" id="arrow-go" xmlns="http://www.w3.org/2000/svg"><path d="M30.547 6.53a.75.75 0 000-1.06L25.774.697a.75.75 0 10-1.06 1.06L28.955 6l-4.243 4.243a.75.75 0 001.061 1.06l4.773-4.773zM0 6.75h30.017v-1.5H0v1.5z"/></symbol><symbol viewBox="0 0 82 83" id="buy-card" xmlns="http://www.w3.org/2000/svg"><path d="M31.08 58.257h.4v-1.775c0-2.051 1.69-3.725 3.79-3.725h2.792s0 0 0 0a3.8 3.8 0 012.528.97l.267.24.267-.24a3.8 3.8 0 012.528-.97s0 0 0 0h2.792c2.1 0 3.79 1.674 3.79 3.725v1.775h2.795v1.95h-2.794v2.175h2.794v1.95h-2.794v4.125H48.24v-2.75H33.473v2.75h-1.994v-4.125H28.686v-1.95H31.479v-2.175H28.686v-1.95h2.393zm16.761 5.5h.4v-7.275c0-.986-.81-1.775-1.797-1.775h-2.793c-.987 0-1.797.789-1.797 1.775v7.275h5.987zm-8.38 0h.4v-7.275c0-.986-.811-1.775-1.798-1.775H35.27c-.987 0-1.797.789-1.797 1.775v7.275h5.987z" stroke="#fff" stroke-width=".8"/><path d="M19.067 37.671h.4V1.861c0-.53.43-.961.962-.961h40.857c.53 0 .962.43.962.962V37.672h19.066v7.37H55.698l.65.678a21.174 21.174 0 015.9 14.703v0c0 11.814-9.577 21.391-21.39 21.391-11.814 0-21.391-9.577-21.391-21.39h0a21.173 21.173 0 015.9-14.704l.65-.677H.4V37.67h18.667zm12.605 8.11l1.18-.738 27.072 15.38.4.002v-.001a19.33 19.33 0 00-7.422-15.296l-.109-.085h-3.931l1.18.739a17.305 17.305 0 015.481 5.481c5.073 8.1 2.619 18.778-5.481 23.85l.212.34-.212-.34c-8.1 5.074-18.778 2.62-23.851-5.48-5.073-8.1-2.618-18.778 5.481-23.851zm9.185-.738h0c-8.49.01-15.37 6.89-15.38 15.38v0c0 8.495 6.885 15.382 15.38 15.382 8.495 0 15.381-6.887 15.381-15.381 0-8.495-6.886-15.381-15.38-15.381zm38.534-5.048v-.4H2.323v3.524H79.39v-3.124zM60.324 3.224v-.4H35.01V37.67H60.323V3.224zm-27.238 0v-.4H26.838V37.67H33.086V3.224zm-8.172 0v-.4H21.391V37.67H24.913V3.224z" stroke="#fff" stroke-width=".8"/><path d="M55.824 17.836l-.46.328.461.325a6.52 6.52 0 011.405 1.342c2.176 2.819 1.556 6.79-1.405 8.879-2.97 2.095-7.156 1.487-9.34-1.343-2.177-2.818-1.557-6.79 1.404-8.878l.464-.327-.465-.327c-1.697-1.193-2.696-3.079-2.702-5.08-.003-2.002.988-3.895 2.681-5.097l-.231-.327.231.327c2.959-2.101 7.139-1.507 9.33 1.311h0c2.182 2.807 1.576 6.774-1.373 8.867zm-3.967-9.534c-2.547 0-4.642 1.978-4.642 4.455 0 2.477 2.095 4.454 4.642 4.454s4.643-1.977 4.643-4.454c0-2.477-2.096-4.455-4.643-4.455zm0 10.812c-2.547 0-4.642 1.977-4.642 4.454 0 2.477 2.095 4.455 4.642 4.455s4.643-1.978 4.643-4.455c0-2.477-2.096-4.454-4.643-4.454z" stroke="#fff" stroke-width=".8"/></symbol><symbol viewBox="0 0 80 80" id="buy-cashless" xmlns="http://www.w3.org/2000/svg"><g clip-path="url(#clip0)" stroke="#fff" stroke-width=".8"><path d="M57.333 72.4h0c8.317-.01 15.057-6.75 15.067-15.066v0c0-8.322-6.746-15.067-15.067-15.067-8.32 0-15.066 6.745-15.066 15.066 0 8.321 6.745 15.067 15.066 15.067zM40.4 57.333c0-9.352 7.581-16.933 16.933-16.933 9.348.01 16.923 7.586 16.934 16.934 0 9.352-7.582 16.933-16.934 16.933S40.4 66.685 40.4 57.333z"/><path d="M59.6 48v.4h1.733a3.6 3.6 0 013.6 3.6v2.666a3.574 3.574 0 01-.935 2.398l-.246.27.246.27c.599.654.932 1.51.935 2.397v2.666a3.6 3.6 0 01-3.6 3.6H59.6v2.666h-1.867v-2.666h-2.126l.004.403.018 2.256-1.867.015-.018-2.278-.003-.396h-4.007V64.4H52.4V50.267h-2.667V48.4h4.008l.003-.397.018-2.277 1.867.015-.018 2.256-.004.403h2.126v-2.667H59.6V48zm-5.333 16v.4H61.333c.958 0 1.734-.776 1.734-1.733V60c0-.957-.776-1.733-1.734-1.733H54.267V64zm0-8v.4H61.333c.958 0 1.734-.776 1.734-1.733V52c0-.957-.776-1.733-1.734-1.733H54.267V56z"/><path d="M57.333 77.733h0c11.262-.012 20.388-9.138 20.4-20.4v0c0-11.266-9.133-20.4-20.4-20.4-11.266 0-20.4 9.134-20.4 20.4 0 11.267 9.134 20.4 20.4 20.4zm-22.266-20.4c0-12.297 9.969-22.266 22.266-22.266 12.292.014 22.253 9.975 22.267 22.267C79.6 69.63 69.63 79.6 57.333 79.6c-12.297 0-22.266-9.97-22.266-22.267zM22.666 37.733h0c8.322 0 15.067-6.745 15.067-15.066 0-8.321-6.745-15.067-15.066-15.067C14.345 7.6 7.6 14.346 7.6 22.667h0c.01 8.317 6.75 15.057 15.066 15.066zM5.733 22.667c0-9.352 7.582-16.934 16.934-16.934S39.6 13.314 39.6 22.666c-.01 9.348-7.586 16.923-16.934 16.934-9.352 0-16.933-7.581-16.933-16.933z"/><path d="M22.666 43.067h0c11.267 0 20.4-9.134 20.4-20.4 0-11.267-9.133-20.4-20.4-20.4-11.266 0-20.4 9.133-20.4 20.4h0c.013 11.261 9.14 20.387 20.4 20.4zM.4 22.667C.4 10.369 10.37.4 22.667.4c12.297 0 22.266 9.969 22.266 22.266-.013 12.292-9.975 22.254-22.267 22.267C10.37 44.933.4 34.964.4 22.667z"/><path d="M23.6 13.441v.34l.336.055c2.916.476 4.997 2.515 4.997 4.83a.933.933 0 01-1.866 0c0-.902-.57-1.677-1.366-2.207-.8-.534-1.88-.859-3.034-.859-1.155 0-2.234.325-3.035.859-.796.53-1.365 1.305-1.365 2.208 0 .902.57 1.678 1.365 2.208.8.534 1.88.858 3.035.858 3.543 0 6.266 2.292 6.266 4.934 0 2.315-2.081 4.354-4.997 4.83l-.336.055v2.715h-1.867v-2.715l-.335-.055c-2.916-.476-4.998-2.515-4.998-4.83a.933.933 0 011.867 0c0 .902.57 1.678 1.365 2.208.8.534 1.88.858 3.035.858 1.155 0 2.233-.324 3.034-.858.796-.53 1.366-1.306 1.366-2.208 0-.903-.57-1.678-1.366-2.209-.8-.534-1.88-.858-3.034-.858-3.543 0-6.267-2.292-6.267-4.933 0-2.316 2.082-4.355 4.998-4.83l.335-.056v-2.714H23.6v2.374zM71.6 28v6.267h-1.867V28v0c-.007-6.845-5.554-12.392-12.4-12.4h0-7.08l.683.683 3.097 3.098-1.32 1.32-6.033-6.034 6.033-6.035 1.32 1.32-3.097 3.098-.683.683h7.08s0 0 0 0C65.21 13.743 71.591 20.125 71.6 28zM8.4 52v-6.267h1.867V52h0c.007 6.845 5.554 12.392 12.4 12.4H28.412l-.682-.683-3.097-3.098 1.32-1.32 6.032 6.034-6.033 6.035-1.32-1.32 3.098-3.099.682-.682h-5.745C14.791 66.257 8.408 59.875 8.4 52z"/></g></symbol><symbol viewBox="0 0 82 83" id="sell-card" xmlns="http://www.w3.org/2000/svg"><path d="M31.08 24.457h.4v1.775c0 2.052 1.69 3.725 3.79 3.725h2.792s0 0 0 0a3.8 3.8 0 002.528-.97l.267-.24.267.24a3.8 3.8 0 002.528.97s0 0 0 0h2.792c2.1 0 3.79-1.674 3.79-3.725v-1.775h2.795v-1.95h-2.794v-2.175h2.794v-1.95h-2.794v-4.125H48.24v2.75H33.473v-2.75h-1.994v4.125H28.686v1.95H31.479v2.175H28.686v1.95h2.393zm16.761-5.5h.4v7.275c0 .986-.81 1.775-1.797 1.775h-2.793a1.786 1.786 0 01-1.797-1.775v-7.275h5.987zm-8.38 0h.4v7.275c0 .986-.811 1.775-1.798 1.775H35.27a1.786 1.786 0 01-1.797-1.775v-7.275h5.987z" stroke="#fff" stroke-width=".8"/><path d="M19.067 45.043h.4V80.853c0 .53.43.961.962.961h40.857c.53 0 .962-.43.962-.962V45.042h19.066v-7.37H55.698l.65-.678a21.174 21.174 0 005.9-14.703v0C62.248 10.477 52.67.9 40.858.9c-11.814 0-21.391 9.577-21.391 21.39v.001a21.173 21.173 0 005.9 14.703l.65.677H.4v7.372h18.667zm12.605-8.11l1.18.738 27.072-15.38.4-.002v.001a19.33 19.33 0 01-7.422 15.297l-.109.085h-3.931l1.18-.74a17.305 17.305 0 005.481-5.48c5.073-8.1 2.619-18.779-5.481-23.852l.212-.339-.212.34c-8.1-5.073-18.778-2.62-23.851 5.48-5.073 8.1-2.618 18.779 5.481 23.851zm9.185.738h0c-8.49-.01-15.37-6.89-15.38-15.38v0c0-8.495 6.885-15.381 15.38-15.381 8.495 0 15.381 6.886 15.381 15.38 0 8.495-6.886 15.381-15.38 15.381zm38.534 5.048v.4H2.323v-3.524H79.39v3.124zM60.324 79.49v.4H35.01V45.044H60.323V79.49zm-27.238 0v.4H26.838V45.044H33.086V79.49zm-8.172 0v.4H21.391V45.044H24.913V79.49z" stroke="#fff" stroke-width=".8"/><path d="M55.824 64.878l-.46-.327.461-.326a6.52 6.52 0 001.405-1.342c2.176-2.819 1.556-6.79-1.405-8.878-2.97-2.096-7.156-1.488-9.34 1.342-2.177 2.818-1.557 6.79 1.404 8.878l.464.327-.465.327c-1.697 1.193-2.696 3.079-2.702 5.08-.003 2.003.988 3.895 2.681 5.098l-.231.326.231-.326c2.959 2.1 7.139 1.506 9.33-1.312h0c2.182-2.807 1.576-6.774-1.373-8.867zm-3.967 9.534c-2.547 0-4.642-1.977-4.642-4.454 0-2.477 2.095-4.455 4.642-4.455s4.643 1.978 4.643 4.455c0 2.477-2.096 4.454-4.643 4.454zm0-10.812c-2.547 0-4.642-1.977-4.642-4.454 0-2.477 2.095-4.455 4.642-4.455S56.5 56.67 56.5 59.146c0 2.477-2.096 4.454-4.643 4.454z" stroke="#fff" stroke-width=".8"/></symbol><symbol viewBox="0 0 80 80" id="sell-cashless" xmlns="http://www.w3.org/2000/svg"><g clip-path="url(#clip0)" stroke="#fff" stroke-width=".8"><path d="M22.667 7.6h0C14.348 7.61 7.61 14.35 7.6 22.666v0c0 8.322 6.746 15.067 15.067 15.067 8.32 0 15.066-6.745 15.066-15.066 0-8.321-6.745-15.067-15.066-15.067zM39.6 22.667c0 9.352-7.581 16.933-16.933 16.933-9.348-.01-16.923-7.586-16.934-16.934 0-9.352 7.582-16.933 16.934-16.933S39.6 13.315 39.6 22.667z"/><path d="M24.933 32v-.4h1.734a3.6 3.6 0 003.6-3.6v-2.666a3.575 3.575 0 00-.936-2.398l-.246-.27.246-.27c.599-.654.932-1.51.936-2.397v-2.666a3.6 3.6 0 00-3.6-3.6h-1.734v-2.666h-1.866v2.666H20.94l.003-.403.018-2.256-1.867-.015-.018 2.278-.003.396h-4.007V15.6h2.666V29.733h-2.666V31.6h4.007l.003.397.018 2.277 1.867-.015-.018-2.256-.003-.403h2.126v2.667h1.866V32zM19.6 16v-.4h7.067c.957 0 1.733.776 1.733 1.733V20c0 .957-.776 1.733-1.733 1.733H19.6V16zm0 8v-.4h7.067c.957 0 1.733.776 1.733 1.733V28c0 .957-.776 1.733-1.733 1.733H19.6V24z"/><path d="M22.667 2.267h0c-11.262.012-20.388 9.138-20.4 20.4v0c0 11.266 9.133 20.4 20.4 20.4 11.266 0 20.4-9.134 20.4-20.4 0-11.267-9.134-20.4-20.4-20.4zm22.266 20.4c0 12.297-9.969 22.266-22.266 22.266C10.375 44.92.414 34.958.4 22.666.4 10.37 10.37.4 22.667.4c12.297 0 22.266 9.97 22.266 22.267zM57.334 42.267h0c-8.322 0-15.067 6.745-15.067 15.066 0 8.321 6.745 15.067 15.066 15.067 8.321 0 15.067-6.746 15.067-15.067h0c-.01-8.317-6.75-15.057-15.066-15.066zm16.933 15.066c0 9.352-7.582 16.934-16.934 16.934S40.4 66.686 40.4 57.334c.01-9.348 7.586-16.923 16.934-16.934 9.352 0 16.933 7.581 16.933 16.933z"/><path d="M57.334 36.933h0c-11.267 0-20.4 9.134-20.4 20.4 0 11.267 9.133 20.4 20.4 20.4 11.266 0 20.4-9.133 20.4-20.4h0c-.013-11.261-9.14-20.387-20.4-20.4zm22.266 20.4c0 12.298-9.97 22.267-22.267 22.267-12.297 0-22.266-9.969-22.266-22.266.013-12.292 9.975-22.254 22.267-22.267 12.297 0 22.266 9.969 22.266 22.266z"/><path d="M56.4 66.559v-.34l-.336-.055c-2.916-.476-4.997-2.515-4.997-4.83a.933.933 0 011.866 0c0 .902.57 1.677 1.365 2.207.801.535 1.88.859 3.035.859 1.155 0 2.234-.325 3.035-.859.796-.53 1.365-1.305 1.365-2.208 0-.902-.57-1.678-1.365-2.208-.8-.534-1.88-.858-3.035-.858-3.543 0-6.266-2.292-6.266-4.934 0-2.315 2.081-4.354 4.997-4.83l.336-.055v-2.715h1.867v2.715l.335.055c2.917.476 4.998 2.515 4.998 4.83a.933.933 0 01-1.867 0c0-.902-.57-1.678-1.365-2.208-.8-.534-1.88-.858-3.035-.858-1.155 0-2.233.324-3.035.858-.795.53-1.365 1.306-1.365 2.208 0 .903.57 1.678 1.365 2.209.801.533 1.88.858 3.035.858 3.543 0 6.267 2.292 6.267 4.933 0 2.316-2.081 4.355-4.998 4.83l-.335.056v2.714H56.4V66.56zM8.4 52v-6.267h1.867V52c.007 6.845 5.554 12.392 12.4 12.4h7.08l-.683-.683-3.097-3.098 1.32-1.32 6.033 6.034-6.033 6.035-1.32-1.32 3.097-3.099.683-.682h-7.08s0 0 0 0C14.79 66.257 8.409 59.875 8.4 52zM71.6 28v6.267h-1.867V28h0c-.007-6.845-5.554-12.392-12.4-12.4h0H51.587l.682.683 3.097 3.098-1.32 1.32-6.032-6.034 6.033-6.035 1.32 1.32-3.098 3.099-.682.682h5.745c7.876.01 14.259 6.392 14.268 14.267z"/></g></symbol><symbol viewBox="0 0 36 36" id="slider-arrow" xmlns="http://www.w3.org/2000/svg"><circle cx="18" cy="18" r="17.5" stroke="#fff"/><path d="M21.624 11.04l-7.09 6.888-.073.072.074.072 7.089 6.887-.88.855L12.702 18l8.042-7.814.88.854z" stroke="#123E81" stroke-width=".2"/></symbol><symbol viewBox="0 0 16 16" id="user" xmlns="http://www.w3.org/2000/svg"><path fill-rule="evenodd" clip-rule="evenodd" d="M1.51 15.375s-1.26 0-1.26-1.26 1.26-5.042 7.563-5.042c6.302 0 7.562 3.781 7.562 5.042 0 1.26-1.26 1.26-1.26 1.26H1.51zm6.303-7.563a3.781 3.781 0 100-7.562 3.781 3.781 0 000 7.563z"/></symbol></svg>