<svg width="82" height="83" viewBox="0 0 82 83" fill="none" xmlns="http://www.w3.org/2000/svg">
<path d="M31.0793 24.4571H31.4793V24.8571V26.2321C31.4793 28.2835 33.1704 29.9571 35.2698 29.9571L38.062 29.9571C38.0622 29.9571 38.0624 29.9571 38.0626 29.9571C38.9991 29.9537 39.8999 29.6075 40.5896 28.9872L40.8571 28.7467L41.1245 28.9872C41.8143 29.6075 42.7151 29.9537 43.6516 29.9571C43.6518 29.9571 43.6519 29.9571 43.6521 29.9571L46.4444 29.9571C48.5438 29.9571 50.2349 28.2835 50.2349 26.2321V24.8571V24.4571H50.6349H53.0285V22.5071H50.6349H50.2349V22.1071V20.7321V20.3321H50.6349H53.0285V18.3821H50.6349H50.2349V17.9821V14.2571H48.2412V16.6071V17.0071H47.8412L33.8729 17.0071H33.4729V16.6071V14.2571H31.4793V17.9821V18.3821H31.0793H28.6856V20.3321H31.0793H31.4793V20.7321V22.1071V22.5071H31.0793H28.6856V24.4571H31.0793ZM47.8412 18.9571H48.2412V19.3571V26.2321C48.2412 27.2183 47.4307 28.0071 46.4444 28.0071H43.6507C42.6644 28.0071 41.8539 27.2183 41.8539 26.2321V19.3571V18.9571H42.2539L47.8412 18.9571ZM39.4602 18.9571H39.8602V19.3571V26.2321C39.8602 27.2183 39.0498 28.0071 38.0634 28.0071H35.2698C34.2834 28.0071 33.4729 27.2183 33.4729 26.2321V19.3571V18.9571H33.8729H39.4602Z" fill="white" stroke="white" stroke-width="0.8"/>
<path d="M19.0667 45.0429H19.4667V45.4429L19.4667 80.8524C19.4667 81.3836 19.8974 81.8143 20.4286 81.8143L61.2857 81.8143C61.8169 81.8143 62.2476 81.3836 62.2476 80.8524L62.2476 45.4429V45.0429H62.6476L81.3143 45.0429V37.6714L56.6362 37.6714H55.6976L56.3476 36.9944C60.1429 33.0414 62.2576 27.7712 62.2476 22.2912V22.2905C62.2476 10.4769 52.6707 0.9 40.8571 0.9C29.0436 0.9 19.4667 10.4769 19.4667 22.2905L19.4667 22.2912C19.4566 27.7712 21.5714 33.0414 25.3667 36.9944L26.0167 37.6714H25.0781H0.4L0.4 45.0429H19.0667ZM31.6723 36.9324L32.8523 37.6714L59.9238 22.2906L60.3238 22.2892C60.3238 22.2895 60.3238 22.2899 60.3238 22.2903C60.3452 28.2618 57.6056 33.908 52.9017 37.5867L52.7932 37.6716H52.6553H50.2543H48.862L50.042 36.9326C52.2602 35.5434 54.1342 33.6693 55.5233 31.4513C60.5959 23.3513 58.1418 12.673 50.042 7.60035L50.2543 7.26135L50.042 7.60035C41.9422 2.52756 31.2636 4.98167 26.191 13.0815C21.1184 21.1814 23.5725 31.8598 31.6723 36.9324ZM40.8571 37.6714H40.8567C32.3665 37.6615 25.4862 30.7811 25.4762 22.2909V22.2905C25.4762 13.7958 32.3625 6.90952 40.8571 6.90952C49.3518 6.90952 56.2381 13.7958 56.2381 22.2905C56.2381 30.7851 49.3518 37.6714 40.8571 37.6714ZM79.3905 42.719V43.119H78.9905L2.72381 43.119H2.32381V42.719L2.32381 39.9952V39.5952H2.72381L78.9905 39.5952H79.3905V39.9952V42.719ZM60.3238 79.4905V79.8905H59.9238L35.4095 79.8905H35.0095V79.4905L35.0095 45.4429V45.0429H35.4095H59.9238H60.3238V45.4429L60.3238 79.4905ZM33.0857 79.4905V79.8905H32.6857H27.2381H26.8381V79.4905L26.8381 45.4429V45.0429H27.2381H32.6857H33.0857V45.4429L33.0857 79.4905ZM24.9143 79.4905V79.8905H24.5143H21.7905H21.3905V79.4905L21.3905 45.4429V45.0429H21.7905H24.5143H24.9143V45.4429L24.9143 79.4905Z" fill="white" stroke="white" stroke-width="0.8"/>
<path d="M55.8243 64.8779L55.3633 64.5506L55.8253 64.2248C56.3616 63.8467 56.8349 63.3941 57.2298 62.8828C59.4063 60.0643 58.7858 56.0924 55.8253 54.0046C52.8543 51.9094 48.6695 52.5173 46.4843 55.3468C44.3078 58.1651 44.9283 62.1369 47.8888 64.2249L48.3532 64.5524L47.8882 64.879C46.1905 66.0718 45.1919 67.9578 45.1861 69.9584C45.1832 71.9616 46.1737 73.8542 47.8672 75.0567L47.6357 75.3828L47.8672 75.0567C50.826 77.1575 55.006 76.5634 57.1968 73.7451L57.1969 73.7451C59.3792 70.9381 58.7727 66.9711 55.8243 64.8779ZM51.8571 74.4119C49.3103 74.4119 47.2145 72.4346 47.2145 69.9576C47.2145 67.4805 49.3103 65.5032 51.8571 65.5032C54.4038 65.5032 56.4997 67.4805 56.4997 69.9576C56.4997 72.4346 54.4038 74.4119 51.8571 74.4119ZM51.8571 63.6003C49.3103 63.6003 47.2145 61.6229 47.2145 59.1459C47.2145 56.6689 49.3103 54.6915 51.8571 54.6915C54.4038 54.6915 56.4997 56.6689 56.4997 59.1459C56.4997 61.6229 54.4038 63.6003 51.8571 63.6003Z" fill="white" stroke="white" stroke-width="0.8"/>
</svg>
