<svg width="16" height="16" viewBox="0 0 16 16" fill="none" xmlns="http://www.w3.org/2000/svg">
<path fill-rule="evenodd" clip-rule="evenodd" d="M1.51042 15.375C1.51042 15.375 0.25 15.375 0.25 14.1146C0.25 12.8542 1.51042 9.07292 7.8125 9.07292C14.1146 9.07292 15.375 12.8542 15.375 14.1146C15.375 15.375 14.1146 15.375 14.1146 15.375H1.51042ZM7.8125 7.8125C8.81535 7.8125 9.77713 7.41412 10.4862 6.705C11.1954 5.99588 11.5938 5.0341 11.5938 4.03125C11.5938 3.0284 11.1954 2.06662 10.4862 1.3575C9.77713 0.648381 8.81535 0.25 7.8125 0.25C6.80965 0.25 5.84787 0.648381 5.13875 1.3575C4.42963 2.06662 4.03125 3.0284 4.03125 4.03125C4.03125 5.0341 4.42963 5.99588 5.13875 6.705C5.84787 7.41412 6.80965 7.8125 7.8125 7.8125Z" fill="#3C9FD3"/>
</svg>
