<svg width="80" height="80" viewBox="0 0 80 80" fill="none" xmlns="http://www.w3.org/2000/svg">
<g clip-path="url(#clip0)">
<path d="M57.3333 72.4H57.3338C65.6505 72.3902 72.3902 65.6505 72.4 57.3338V57.3333C72.4 49.0123 65.6544 42.2667 57.3333 42.2667C49.0123 42.2667 42.2667 49.0123 42.2667 57.3333C42.2667 65.6544 49.0123 72.4 57.3333 72.4ZM40.4 57.3333C40.4 47.9813 47.9811 40.4001 57.3331 40.4C66.6808 40.4109 74.2559 47.9861 74.2667 57.3338C74.2664 66.6857 66.6853 74.2667 57.3333 74.2667C47.9812 74.2667 40.4 66.6854 40.4 57.3333Z" fill="white" stroke="white" stroke-width="0.8"/>
<path d="M59.5999 48V48.4H59.9999H61.3332C63.3215 48.4 64.9332 50.0117 64.9332 52V54.6657C64.93 55.5534 64.5966 56.4082 63.9979 57.0635L63.7515 57.3333L63.9979 57.6031C64.5966 58.2584 64.93 59.1132 64.9332 60.0009V62.6666C64.9332 64.6549 63.3215 66.2666 61.3332 66.2666H59.9999H59.5999V66.6666V68.9333H57.7332V66.6666V66.2666H57.3332H56.0106H55.6074L55.6106 66.6698L55.6287 68.9258L53.762 68.9408L53.7439 66.6634L53.7407 66.2666H53.3439H49.7333V64.4H51.9999H52.3999V64V50.6666V50.2666H51.9999H49.7333V48.4H53.3439H53.7407L53.7439 48.0032L53.762 45.7258L55.6287 45.7408L55.6106 47.9968L55.6074 48.4H56.0106H57.3332H57.7332V48V45.7333H59.5999V48ZM54.2666 64V64.4H54.6666H61.3332C62.2905 64.4 63.0666 63.6239 63.0666 62.6666V60C63.0666 59.0427 62.2905 58.2666 61.3332 58.2666H54.6666H54.2666V58.6666V64ZM54.2666 56V56.4H54.6666H61.3332C62.2905 56.4 63.0666 55.6239 63.0666 54.6666V52C63.0666 51.0427 62.2905 50.2666 61.3332 50.2666H54.6666H54.2666V50.6666V56Z" fill="white" stroke="white" stroke-width="0.8"/>
<path d="M57.3334 77.7333H57.3339C68.5949 77.7206 77.7207 68.5949 77.7334 57.3338V57.3333C77.7334 46.0668 68.6 36.9334 57.3334 36.9334C46.0668 36.9334 36.9334 46.0668 36.9334 57.3333C36.9334 68.5999 46.0668 77.7333 57.3334 77.7333ZM35.0667 57.3333C35.0667 45.0358 45.0357 35.0668 57.3332 35.0667C69.6252 35.0806 79.5863 45.0418 79.6001 57.3338C79.5998 69.6312 69.6308 79.6 57.3334 79.6C45.0358 79.6 35.0667 69.6309 35.0667 57.3333Z" fill="white" stroke="white" stroke-width="0.8"/>
<path d="M22.6661 37.7333H22.6666C30.9877 37.7333 37.7332 30.9877 37.7332 22.6666C37.7332 14.3456 30.9877 7.59998 22.6666 7.59998C14.3455 7.59998 7.59992 14.3456 7.59992 22.6666L7.59992 22.6671C7.60968 30.9838 14.3494 37.7236 22.6661 37.7333ZM5.73325 22.6666C5.73325 13.3146 13.3145 5.73331 22.6666 5.73331C32.0185 5.73331 39.5997 13.3143 39.5999 22.6662C39.5892 32.014 32.0139 39.5892 22.6661 39.6C13.3142 39.5997 5.73325 32.0186 5.73325 22.6666Z" fill="white" stroke="white" stroke-width="0.8"/>
<path d="M22.6662 43.0667H22.6667C33.9332 43.0667 43.0667 33.9332 43.0667 22.6667C43.0667 11.4001 33.9332 2.26667 22.6667 2.26667C11.4001 2.26667 2.26667 11.4001 2.26667 22.6667L2.26667 22.6671C2.27942 33.9282 11.4052 43.0539 22.6662 43.0667ZM0.4 22.6667C0.4 10.3691 10.3691 0.4 22.6667 0.4C34.9641 0.4 44.9331 10.3688 44.9333 22.6662C44.9196 34.9583 34.9583 44.9196 22.6662 44.9333C10.3688 44.9331 0.4 34.9641 0.4 22.6667Z" fill="white" stroke="white" stroke-width="0.8"/>
<path d="M23.6 13.4414V13.7814L23.9356 13.8361C26.8519 14.3122 28.9333 16.351 28.9333 18.6667C28.9333 19.1821 28.5154 19.6 28 19.6C27.4846 19.6 27.0667 19.1821 27.0667 18.6667C27.0667 17.764 26.4969 16.9888 25.7015 16.4585C24.9005 15.9245 23.8217 15.6 22.6667 15.6C21.5116 15.6 20.4328 15.9245 19.6318 16.4585C18.8364 16.9888 18.2667 17.764 18.2667 18.6667C18.2667 19.5693 18.8364 20.3446 19.6318 20.8748C20.4328 21.4089 21.5116 21.7334 22.6667 21.7334C26.2097 21.7334 28.9333 24.025 28.9333 26.6667C28.9333 28.9824 26.8519 31.0212 23.9356 31.4972L23.6 31.552V31.892V34.2667H21.7333V31.892V31.552L21.3978 31.4972C18.4815 31.0212 16.4 28.9824 16.4 26.6667C16.4 26.1513 16.8179 25.7334 17.3333 25.7334C17.8488 25.7334 18.2667 26.1513 18.2667 26.6667C18.2667 27.5693 18.8364 28.3446 19.6318 28.8748C20.4328 29.4089 21.5116 29.7334 22.6667 29.7334C23.8217 29.7334 24.9005 29.4089 25.7015 28.8748C26.4969 28.3446 27.0667 27.5693 27.0667 26.6667C27.0667 25.764 26.4969 24.9888 25.7015 24.4585C24.9005 23.9245 23.8217 23.6 22.6667 23.6C19.1236 23.6 16.4 21.3084 16.4 18.6667C16.4 16.351 18.4815 14.3122 21.3978 13.8361L21.7333 13.7814V13.4414V11.0667H23.6V13.4414Z" fill="white" stroke="white" stroke-width="0.8"/>
<path d="M71.6001 28.0005V34.2667H69.7334V28V27.9995C69.7258 21.1546 64.1788 15.6076 57.3339 15.6H57.3334H51.2187H50.2533L50.9359 16.2828L54.0331 19.3813L52.7134 20.7009L46.6804 14.6667L52.7134 8.63236L54.0331 9.95204L50.9359 13.0505L50.2533 13.7333H51.2187L57.3329 13.7333C57.3331 13.7333 57.3333 13.7333 57.3334 13.7333C65.2088 13.7428 71.5908 20.125 71.6001 28.0005Z" fill="white" stroke="white" stroke-width="0.8"/>
<path d="M8.4 51.9997V45.7333H10.2667L10.2667 52L10.2667 52.0004C10.2742 58.8453 15.8213 64.3924 22.6662 64.4H22.6667H27.448H28.4134L27.7309 63.7172L24.6336 60.6187L25.9533 59.299L31.9864 65.3333L25.9533 71.3676L24.6336 70.0479L27.7309 66.9494L28.4134 66.2667H27.448H22.6671C14.7916 66.2574 8.40936 59.8753 8.4 51.9997Z" fill="white" stroke="white" stroke-width="0.8"/>
</g>
<defs>
<clipPath id="clip0">
<rect width="80" height="80" fill="white"/>
</clipPath>
</defs>
</svg>
