<svg width="80" height="80" viewBox="0 0 80 80" fill="none" xmlns="http://www.w3.org/2000/svg">
<g clip-path="url(#clip0)">
<path d="M22.6667 7.6H22.6662C14.3495 7.60976 7.60976 14.3495 7.6 22.6662V22.6667C7.6 30.9877 14.3456 37.7333 22.6667 37.7333C30.9877 37.7333 37.7333 30.9877 37.7333 22.6667C37.7333 14.3456 30.9877 7.6 22.6667 7.6ZM39.6 22.6667C39.6 32.0187 32.0189 39.5999 22.6669 39.6C13.3192 39.5891 5.74408 32.0139 5.73334 22.6662C5.73359 13.3143 13.3147 5.73334 22.6667 5.73334C32.0188 5.73334 39.6 13.3146 39.6 22.6667Z" fill="white" stroke="white" stroke-width="0.8"/>
<path d="M24.9333 32V31.6H25.3333H26.6666C28.6549 31.6 30.2666 29.9883 30.2666 28V25.3343C30.2633 24.4466 29.93 23.5918 29.3313 22.9365L29.0848 22.6667L29.3313 22.3969C29.93 21.7416 30.2633 20.8868 30.2666 19.9991V17.3334C30.2666 15.3451 28.6549 13.7334 26.6666 13.7334H25.3333H24.9333V13.3334V11.0667H23.0666V13.3334V13.7334H22.6666H21.344H20.9407L20.944 13.3302L20.9621 11.0742L19.0954 11.0592L19.0773 13.3366L19.0741 13.7334H18.6773H15.0666V15.6H17.3333H17.7333V16V29.3334V29.7334H17.3333H15.0666V31.6H18.6773H19.0741L19.0773 31.9968L19.0954 34.2742L20.9621 34.2592L20.944 32.0032L20.9407 31.6H21.344H22.6666H23.0666V32V34.2667H24.9333V32ZM19.6 16V15.6H20H26.6666C27.6239 15.6 28.4 16.3761 28.4 17.3334V20C28.4 20.9573 27.6239 21.7334 26.6666 21.7334H20H19.6V21.3334V16ZM19.6 24V23.6H20H26.6666C27.6239 23.6 28.4 24.3761 28.4 25.3334V28C28.4 28.9573 27.6239 29.7334 26.6666 29.7334H20H19.6V29.3334V24Z" fill="white" stroke="white" stroke-width="0.8"/>
<path d="M22.6667 2.26665H22.6663C11.4052 2.27941 2.27947 11.4051 2.26672 22.6662V22.6667C2.26672 33.9332 11.4001 43.0666 22.6667 43.0666C33.9333 43.0666 43.0667 33.9332 43.0667 22.6667C43.0667 11.4001 33.9333 2.26665 22.6667 2.26665ZM44.9334 22.6667C44.9334 34.9642 34.9644 44.9332 22.6669 44.9333C10.3749 44.9194 0.413807 34.9582 0.400055 22.6662C0.400295 10.3688 10.3693 0.399994 22.6667 0.399994C34.9643 0.399994 44.9334 10.3691 44.9334 22.6667Z" fill="white" stroke="white" stroke-width="0.8"/>
<path d="M57.3338 42.2667H57.3333C49.0122 42.2667 42.2666 49.0123 42.2666 57.3334C42.2666 65.6544 49.0122 72.4 57.3333 72.4C65.6544 72.4 72.4 65.6544 72.4 57.3334L72.4 57.3329C72.3902 49.0162 65.6505 42.2764 57.3338 42.2667ZM74.2666 57.3334C74.2666 66.6854 66.6854 74.2667 57.3333 74.2667C47.9814 74.2667 40.4002 66.6857 40.4 57.3338C40.4107 47.986 47.986 40.4108 57.3338 40.4C66.6856 40.4003 74.2666 47.9814 74.2666 57.3334Z" fill="white" stroke="white" stroke-width="0.8"/>
<path d="M57.3338 36.9333H57.3333C46.0668 36.9333 36.9333 46.0668 36.9333 57.3333C36.9333 68.5999 46.0668 77.7333 57.3333 77.7333C68.5999 77.7333 77.7333 68.5999 77.7333 57.3333L77.7333 57.3329C77.7206 46.0718 68.5948 36.9461 57.3338 36.9333ZM79.6 57.3333C79.6 69.6309 69.6309 79.6 57.3333 79.6C45.0359 79.6 35.0669 69.6312 35.0667 57.3338C35.0804 45.0417 45.0417 35.0804 57.3338 35.0667C69.6312 35.0669 79.6 45.0359 79.6 57.3333Z" fill="white" stroke="white" stroke-width="0.8"/>
<path d="M56.4 66.5586V66.2186L56.0644 66.1639C53.1481 65.6878 51.0667 63.649 51.0667 61.3333C51.0667 60.8179 51.4846 60.4 52 60.4C52.5154 60.4 52.9333 60.8179 52.9333 61.3333C52.9333 62.236 53.5031 63.0112 54.2985 63.5415C55.0995 64.0755 56.1783 64.4 57.3333 64.4C58.4884 64.4 59.5672 64.0755 60.3682 63.5415C61.1636 63.0112 61.7333 62.236 61.7333 61.3333C61.7333 60.4307 61.1636 59.6554 60.3682 59.1252C59.5672 58.5911 58.4884 58.2666 57.3333 58.2666C53.7903 58.2666 51.0667 55.975 51.0667 53.3333C51.0667 51.0176 53.1481 48.9788 56.0644 48.5028L56.4 48.448V48.108V45.7333H58.2667V48.108V48.448L58.6022 48.5028C61.5185 48.9788 63.6 51.0176 63.6 53.3333C63.6 53.8487 63.1821 54.2666 62.6667 54.2666C62.1512 54.2666 61.7333 53.8487 61.7333 53.3333C61.7333 52.4307 61.1636 51.6554 60.3682 51.1252C59.5672 50.5911 58.4884 50.2666 57.3333 50.2666C56.1783 50.2666 55.0995 50.5911 54.2985 51.1252C53.5031 51.6554 52.9333 52.4307 52.9333 53.3333C52.9333 54.236 53.5031 55.0112 54.2985 55.5415C55.0995 56.0755 56.1783 56.4 57.3333 56.4C60.8764 56.4 63.6 58.6916 63.6 61.3333C63.6 63.649 61.5185 65.6878 58.6022 66.1639L58.2667 66.2186V66.5586V68.9333H56.4V66.5586Z" fill="white" stroke="white" stroke-width="0.8"/>
<path d="M8.40005 51.9995V45.7333H10.2667V52V52.0005C10.2743 58.8454 15.8214 64.3924 22.6663 64.4H22.6667H28.7814H29.7468L29.0643 63.7172L25.967 60.6187L27.2867 59.2991L33.3197 65.3333L27.2867 71.3676L25.967 70.048L29.0643 66.9495L29.7468 66.2667H28.7814L22.6672 66.2667C22.667 66.2667 22.6669 66.2667 22.6667 66.2667C14.7913 66.2572 8.40929 59.875 8.40005 51.9995Z" fill="white" stroke="white" stroke-width="0.8"/>
<path d="M71.6 28.0003V34.2667H69.7333L69.7333 28L69.7333 27.9996C69.7258 21.1547 64.1787 15.6076 57.3338 15.6H57.3333H52.552H51.5866L52.2691 16.2828L55.3664 19.3813L54.0467 20.701L48.0136 14.6667L54.0467 8.63239L55.3664 9.95207L52.2691 13.0506L51.5866 13.7333H52.552H57.3329C65.2084 13.7426 71.5906 20.1247 71.6 28.0003Z" fill="white" stroke="white" stroke-width="0.8"/>
</g>
<defs>
<clipPath id="clip0">
<rect width="80" height="80" fill="white" transform="translate(80 80) rotate(-180)"/>
</clipPath>
</defs>
</svg>
