<svg width="66" height="58" viewBox="0 0 66 58" fill="none" xmlns="http://www.w3.org/2000/svg">
<g filter="url(#filter0_d)">
<rect x="10" width="46" height="37.9976" rx="1" fill="url(#paint0_linear)"/>
</g>
<path d="M35.2474 15.2912V12.6668H41.2488V8.66809H24.9069V12.6668H30.909V15.2891C26.031 15.5131 22.3633 16.4792 22.3633 17.6365C22.3633 18.7938 26.0328 19.7598 30.909 19.9853V28.3916H35.2488V19.9846C40.118 19.7598 43.7783 18.7945 43.7783 17.6382C43.7783 16.482 40.118 15.5166 35.2488 15.2919L35.2474 15.2912ZM35.2488 19.2726V19.2704C35.1264 19.2782 34.4973 19.316 33.0965 19.316C31.9766 19.316 31.1888 19.2842 30.9111 19.2697V19.2733C26.6015 19.0824 23.3847 18.3319 23.3847 17.4339C23.3847 16.536 26.6019 15.7865 30.9111 15.5953V18.5256C31.1933 18.545 32.0006 18.5927 33.1149 18.5927C34.4532 18.5927 35.126 18.5369 35.2495 18.5256V15.5953C39.5506 15.7869 42.76 16.5381 42.76 17.4329C42.76 18.3277 39.5492 19.0792 35.2495 19.2708" fill="white"/>
<defs>
<filter id="filter0_d" x="0" y="0" width="66" height="57.9976" filterUnits="userSpaceOnUse" color-interpolation-filters="sRGB">
<feFlood flood-opacity="0" result="BackgroundImageFix"/>
<feColorMatrix in="SourceAlpha" type="matrix" values="0 0 0 0 0 0 0 0 0 0 0 0 0 0 0 0 0 0 127 0"/>
<feOffset dy="10"/>
<feGaussianBlur stdDeviation="5"/>
<feColorMatrix type="matrix" values="0 0 0 0 0.262745 0 0 0 0 0.341176 0 0 0 0 0.494118 0 0 0 0.25 0"/>
<feBlend mode="normal" in2="BackgroundImageFix" result="effect1_dropShadow"/>
<feBlend mode="normal" in="SourceGraphic" in2="effect1_dropShadow" result="shape"/>
</filter>
<linearGradient id="paint0_linear" x1="22.4857" y1="37.9976" x2="56.6123" y2="-12.0757" gradientUnits="userSpaceOnUse">
<stop stop-color="#0E295C"/>
<stop offset="1" stop-color="#0E295C" stop-opacity="0"/>
</linearGradient>
</defs>
</svg>
