<svg width="989" height="416" viewBox="0 0 989 416" fill="none" xmlns="http://www.w3.org/2000/svg">
<g clip-path="url(#clip0)">
<path d="M989 0H0V416H989V0Z" fill="#E5E5E5"/>
<path d="M989 0H0V5081.14H989V0Z" fill="white"/>
<path d="M989 350.112H0V5873.09H989V350.112Z" fill="#FAFAFA"/>
<path d="M2.71871 309.385C10.9868 308.712 18.8383 307.339 25.7913 305.35L304.827 225.578C315.105 222.639 327.269 221.066 339.722 221.066H685.615C696.899 221.066 707.966 219.776 717.621 217.333L941.54 160.68C982.735 150.259 1035.36 162.657 1035.36 182.785V271.672C1035.36 348.206 877.089 407.961 694.946 400.198L-76.1814 367.33C-146.925 364.315 -151.531 321.949 -81.7331 316.263L2.71871 309.385Z" fill="white" fill-opacity="0.8"/>
<path d="M-373.913 365.647C-365.238 364.883 -357.054 363.349 -349.92 361.147L-6.2404 255.041C4.39277 251.759 17.2636 249.987 30.4825 249.987H449.624C465.535 249.987 480.83 247.423 492.331 242.829L833.817 106.415C848.711 100.464 869.721 98.0077 889.841 99.8634L1115.27 120.656C1152.66 124.106 1173.63 140.793 1159.21 155.62L1018.44 300.341C1016.34 302.505 1014.95 304.779 1014.3 307.1L987.093 405.274C986.308 408.098 984.417 410.85 981.49 413.417L972.747 421.085C916.167 470.714 790.647 499.94 659.92 493.922L-591.817 436.306C-661.681 433.091 -666.558 391.389 -597.779 385.339L-373.913 365.647Z" fill="white" fill-opacity="0.5"/>
<g filter="url(#filter0_d)">
<path d="M0 0H989V414.708L0 341.566V0Z" fill="url(#paint0_linear)"/>
</g>
<g opacity="0.5">
<path opacity="0.5" d="M800.883 -161.694L-17.0375 128.085C-18.309 128.536 -18.4969 129.327 -17.4622 129.873L740.081 529.785C741.441 530.502 744.099 530.418 745.187 529.625L1230.71 175.248C1231.23 174.863 1231.25 174.392 1230.76 174L805.612 -161.314C804.687 -162.042 802.388 -162.227 800.883 -161.694Z" fill="#C6ECF9" fill-opacity="0.05"/>
<path opacity="0.5" d="M964.26 -92.6372L317.441 143.517C316.217 143.964 316.032 144.731 317.015 145.272L856.292 441.672C857.618 442.4 860.285 442.337 861.407 441.55L1261.66 160.73C1262.19 160.355 1262.24 159.895 1261.78 159.504L969.072 -92.2289C968.182 -92.9947 965.792 -93.1972 964.26 -92.6372Z" fill="#C6ECF9" fill-opacity="0.04"/>
<path opacity="0.5" d="M1107.57 -39.2989L610.272 153.811C609.156 154.244 608.961 154.953 609.814 155.482L925.577 350.46C926.82 351.226 929.533 351.215 930.736 350.436L1265.46 133.523C1265.98 133.179 1266.1 132.752 1265.75 132.369L1112.56 -38.805C1111.79 -39.6663 1109.18 -39.9247 1107.57 -39.2989Z" fill="#C6ECF9" fill-opacity="0.07"/>
</g>
</g>
<defs>
<filter id="filter0_d" x="-15" y="-15" width="1019" height="444.708" filterUnits="userSpaceOnUse" color-interpolation-filters="sRGB">
<feFlood flood-opacity="0" result="BackgroundImageFix"/>
<feColorMatrix in="SourceAlpha" type="matrix" values="0 0 0 0 0 0 0 0 0 0 0 0 0 0 0 0 0 0 127 0"/>
<feOffset/>
<feGaussianBlur stdDeviation="7.5"/>
<feColorMatrix type="matrix" values="0 0 0 0 0.541667 0 0 0 0 0.541667 0 0 0 0 0.541667 0 0 0 0.3 0"/>
<feBlend mode="normal" in2="BackgroundImageFix" result="effect1_dropShadow"/>
<feBlend mode="normal" in="SourceGraphic" in2="effect1_dropShadow" result="shape"/>
</filter>
<linearGradient id="paint0_linear" x1="-176.06" y1="515.583" x2="365.394" y2="885.654" gradientUnits="userSpaceOnUse">
<stop stop-color="#06AAEC"/>
<stop offset="1" stop-color="#204888"/>
</linearGradient>
<clipPath id="clip0">
<rect width="989" height="416" fill="white"/>
</clipPath>
</defs>
</svg>
